:version 1.10
:name ASF
:units
  mass 1
  length 1
  angle deg
:documentation
  ASF file generated by Kaydara
:root
  axis xyz
  order  tx ty tz rx ry rz
  position 0 0 0
  orientation 0 0 0
:bonedata
  begin
    id 1
    name RightUpLegDummy
    direction -0.65628 -0.754516 0.00165102
    length 4.76918
    axis 0 0 0 xyz
  end
  begin
    id 2
    name RightUpLeg
    direction -0.145584 -0.923362 0.355256
    length 17.9961
    axis -24.7611 -13.1006 1.78531 xyz
    dof rx ry rz
  end
  begin
    id 3
    name RightLeg
    direction 0.263379 0.172355 -0.949171
    length 13.3386
    axis 89.6202 -21.1929 12.3855 xyz
    dof rx ry rz
  end
  begin
    id 4
    name RightFoot
    direction 0.224283 -0.968777 -0.105675
    length 5.86697
    axis 56.995 -39.6905 17.3365 xyz
    dof rx ry rz
  end
  begin
    id 5
    name RightToes
    direction -0.0806345 -0.9037 0.420506
    length 4.75197
    axis 146.825 -39.7828 17.6019 xyz
    dof rx ry rz
  end
  begin
    id 6
    name SpineDummy
    direction -3.39852e-014 1 9.33296e-014
    length 8.13779
    axis 0 0 0 xyz
  end
  begin
    id 7
    name Spine
    direction -0.156609 0.733703 0.661176
    length 7.14978
    axis 41.2365 5.68757 17.0844 xyz
    dof rx ry rz
  end
  begin
    id 8
    name Spine1
    direction 0 0 0
    length 0
    axis 42.8809 47.8308 -3.36039 xyz
    dof rx ry rz
  end
  begin
    id 9
    name HEadDummy
    direction 0.546431 0.701947 0.456819
    length 3.55512
    axis 42.8809 47.8308 -3.36039 xyz
  end
  begin
    id 10
    name HEad
    direction 0.23444 0.828559 0.508457
    length 7.35827
    axis 51.1864 49.2662 27.4903 xyz
    dof rx ry rz
  end
  begin
    id 11
    name LeftShoulder1Dummy
    direction 0.431183 0.475873 -0.766568
    length 2.49352
    axis 42.8809 47.8308 -3.36039 xyz
  end
  begin
    id 12
    name LeftShoulder1
    direction 0.268187 -0.383402 -0.883786
    length 4.48604
    axis -119.517 0.106469 35.1736 xyz
    dof rx ry rz
  end
  begin
    id 13
    name LeftArm
    direction 0.380567 -0.703221 -0.600541
    length 10.1142
    axis -5.41825 36.2925 7.8293 xyz
    dof rx ry rz
  end
  begin
    id 14
    name LeftForeArm
    direction 0.541071 -0.732356 -0.413396
    length 9.39839
    axis 4.65387 33.7604 7.81644 xyz
    dof rx ry rz
  end
  begin
    id 15
    name LeftHand
    direction 0.847511 -0.389379 -0.360707
    length 3.66142
    axis 7.65593 21.1436 -24.6758 xyz
    dof rx ry rz
  end
  begin
    id 16
    name RightShoulderDummy
    direction -0.692546 0.541855 0.476208
    length 2.49352
    axis 42.8809 47.8308 -3.36039 xyz
  end
  begin
    id 17
    name RightShoulder
    direction -0.870808 -0.316653 0.376065
    length 4.48602
    axis 141.571 51.133 -100.254 xyz
    dof rx ry rz
  end
  begin
    id 18
    name RightArm
    direction 0.366897 -0.87275 0.322015
    length 10.1142
    axis 92.3258 71.2036 138.917 xyz
    dof rx ry rz
  end
  begin
    id 19
    name RightForeArm
    direction 0.702487 -0.694568 0.155197
    length 9.39835
    axis 153.863 41.5092 -176.604 xyz
    dof rx ry rz
  end
  begin
    id 20
    name RightHand
    direction 0.79502 -0.601276 0.0800636
    length 3.66142
    axis 154.247 4.59222 142.9 xyz
    dof rx ry rz
  end
  begin
    id 21
    name LeftUpLegDummy
    direction 0.65628 -0.754516 0.00165102
    length 4.76919
    axis 0 0 0 xyz
  end
  begin
    id 22
    name LeftUpLeg
    direction -0.1277 -0.689368 0.713067
    length 17.9961
    axis -48.3385 -17.8675 0.791927 xyz
    dof rx ry rz
  end
  begin
    id 23
    name LeftLeg
    direction 0.109849 -0.991246 -0.0732378
    length 13.3386
    axis -2.05791 -7.30784 1.72042 xyz
    dof rx ry rz
  end
  begin
    id 24
    name LeftFoot
    direction 0.0448355 -0.272614 0.961078
    length 5.86697
    axis -18.7733 -7.89606 10.2113 xyz
    dof rx ry rz
  end
  begin
    id 25
    name LeftToes
    direction -0.18506 0.293668 0.937823
    length 4.75197
    axis 71.2267 -7.89606 10.2113 xyz
    dof rx ry rz
  end
:hierarchy
  begin
    root RightUpLegDummy SpineDummy LeftUpLegDummy
    RightUpLegDummy RightUpLeg
    RightUpLeg RightLeg
    RightLeg RightFoot
    RightFoot RightToes
    SpineDummy Spine
    Spine Spine1
    Spine1 HEadDummy LeftShoulder1Dummy RightShoulderDummy
    HEadDummy HEad
    LeftShoulder1Dummy LeftShoulder1
    LeftShoulder1 LeftArm
    LeftArm LeftForeArm
    LeftForeArm LeftHand
    RightShoulderDummy RightShoulder
    RightShoulder RightArm
    RightArm RightForeArm
    RightForeArm RightHand
    LeftUpLegDummy LeftUpLeg
    LeftUpLeg LeftLeg
    LeftLeg LeftFoot
    LeftFoot LeftToes
  end

:SAMPLES-PER-SECOND 30
:FULLY-SPECIFIED
:DEGREES
488
root  -19.3993 35.636 -5.40894 -59.9215 -68.3389 150.374
RightUpLeg  -33.1519 -5.02735 -33.4239
RightLeg  -93.7832 -12.0948 4.23677
RightFoot  21.1571 4.09425 -14.9212
RightToes  -1.27222e-014 -6.36111e-015 6.36111e-015
Spine  3.82554 -18.689 -12.2646
Spine1  -11.5961 -16.693 31.9557
HEad  -14.3185 -20.7346 -12.1279
LeftShoulder1  6.36111e-015 -1.33558e-015 6.49777e-015
LeftArm  -42.2513 -51.2169 -2.16896
LeftForeArm  -28.1811 33.4181 2.43086
LeftHand  -0.552554 1.15568 -10.7737
RightShoulder  -4.77083e-015 -6.36111e-015 -3.18055e-015
RightArm  -35.8993 -7.25963 -30.2278
RightForeArm  -10.3909 -12.4119 -6.97325
RightHand  25.7978 -13.0407 -73.8245
LeftUpLeg  2.66037 13.3933 47.4953
LeftLeg  -34.8721 -2.85061 -6.02935
LeftFoot  -2.42673 4.00634 -14.5392
LeftToes  9.54166e-015 -1.91609e-011 -2.3878e-011
489
root  -19.7109 35.8728 -3.61938 -74.7206 -81.1797 167.786
RightUpLeg  -37.3442 -4.93927 -37.3578
RightLeg  -97.8275 -11.6393 10.3034
RightFoot  19.8904 5.13119 -16.2916
RightToes  -1.27222e-014 -6.36111e-015 6.36111e-015
Spine  3.55932 -16.9833 -8.57446
Spine1  -12.5446 -16.3908 29.6864
HEad  -18.3096 -16.1586 -12.881
LeftShoulder1  6.36111e-015 -1.33558e-015 6.49777e-015
LeftArm  -58.0879 -57.5004 16.6427
LeftForeArm  -33.643 45.498 1.53649
LeftHand  1.10235 6.47343 -9.7946
RightShoulder  -4.77083e-015 -6.36111e-015 -3.18055e-015
RightArm  -38.9646 0.0485271 -26.6818
RightForeArm  -11.4674 -17.6836 -6.92862
RightHand  25.9767 -13.7076 -72.8489
LeftUpLeg  3.32094 12.1811 43.8559
LeftLeg  -36.4376 -4.72499 -5.3224
LeftFoot  -2.70324 4.04908 -14.8299
LeftToes  9.54166e-015 -1.91609e-011 -2.3878e-011
490
root  -19.4105 35.5932 -1.70163 160.096 -82.1333 -66.6384
RightUpLeg  -40.8224 -4.7811 -40.0725
RightLeg  -98.4952 -11.5622 12.4721
RightFoot  19.6118 5.35793 -16.6013
RightToes  -1.27222e-014 -6.36111e-015 6.36111e-015
Spine  3.18502 -14.7053 -3.32301
Spine1  -12.2232 -15.9602 25.6963
HEad  -19.9824 -11.6672 -14.4462
LeftShoulder1  6.36111e-015 -1.33558e-015 6.49777e-015
LeftArm  -70.7897 -52.8128 29.5742
LeftForeArm  -33.5886 50.2805 1.38016
LeftHand  4.52481 13.3304 -3.04338
RightShoulder  -4.77083e-015 -6.36111e-015 -3.18055e-015
RightArm  -36.6588 12.9382 -25.7326
RightForeArm  -14.7705 -28.8324 -6.82779
RightHand  26.147 -14.6595 -71.328
LeftUpLeg  4.25334 11.5074 41.3311
LeftLeg  -36.8391 -6.2259 -4.11583
LeftFoot  -2.32263 3.90904 -14.1382
LeftToes  9.54166e-015 -1.91609e-011 -2.3878e-011
491
root  -18.39 34.9387 -0.0728009 141.185 -68.5231 -49.8939
RightUpLeg  -45.0211 -4.4796 -43.3003
RightLeg  -95.6026 -12.3425 10.8837
RightFoot  18.8523 6.32547 -18.0204
RightToes  -1.27222e-014 -6.36111e-015 6.36111e-015
Spine  2.85261 -11.5972 3.0556
Spine1  -10.4639 -15.0942 18.5939
HEad  -17.4189 -9.83727 -16.1334
LeftShoulder1  6.36111e-015 -1.33558e-015 6.49777e-015
LeftArm  -73.8217 -45.0204 30.0596
LeftForeArm  -27.2395 47.6219 1.84802
LeftHand  8.76789 17.8627 6.84886
RightShoulder  -4.77083e-015 -6.36111e-015 -3.18055e-015
RightArm  -32.2553 23.4919 -26.299
RightForeArm  -19.9656 -39.8919 -3.65372
RightHand  25.9761 -16.8796 -66.8174
LeftUpLeg  6.15377 11.3111 38.7886
LeftLeg  -36.6617 -7.27744 -3.74121
LeftFoot  -3.74046 3.59985 -13.6595
LeftToes  9.54166e-015 -1.91609e-011 -2.3878e-011
492
root  -16.95 34.2113 0.962417 135.07 -55.2799 -49.7525
RightUpLeg  -50.0467 -3.86535 -45.7298
RightLeg  -92.9439 -13.0501 10.3391
RightFoot  17.0015 7.27955 -19.3564
RightToes  -1.27222e-014 -6.36111e-015 6.36111e-015
Spine  4.17451 -8.23441 9.02709
Spine1  -7.1949 -12.8719 9.69198
HEad  -13.0749 -10.2883 -17.1277
LeftShoulder1  6.36111e-015 -1.33558e-015 6.49777e-015
LeftArm  -72.9245 -45.3332 32.8816
LeftForeArm  -24.6166 46.4414 1.14095
LeftHand  10.3985 19.753 9.43485
RightShoulder  -4.77083e-015 -6.36111e-015 -3.18055e-015
RightArm  -25.5895 24.6372 -25.187
RightForeArm  -25.0373 -42.1673 -1.16497
RightHand  23.4425 -20.1604 -55.7797
LeftUpLeg  9.79072 11.3527 36.4373
LeftLeg  -36.3688 -8.44414 -3.76992
LeftFoot  -6.00644 3.22086 -13.2506
LeftToes  9.54166e-015 -1.91609e-011 -2.3878e-011
493
root  -15.2846 33.5232 1.33123 129.025 -44.4737 -52.3373
RightUpLeg  -56.5638 -6.60837 -45.1399
RightLeg  -92.459 -13.3477 11.3128
RightFoot  15.8871 6.73081 -18.3118
RightToes  -1.27222e-014 -6.36111e-015 6.36111e-015
Spine  5.31918 -6.05089 11.8337
Spine1  -3.96122 -10.0343 5.07524
HEad  -10.5799 -10.2431 -16.9684
LeftShoulder1  6.36111e-015 -1.33558e-015 6.49777e-015
LeftArm  -72.9202 -46.3894 36.5579
LeftForeArm  -20.2425 44.0734 0.901227
LeftHand  10.4309 20.5104 8.34142
RightShoulder  -4.77083e-015 -6.36111e-015 -3.18055e-015
RightArm  -20.159 23.2728 -24.3557
RightForeArm  -26.339 -37.2467 0.202814
RightHand  17.9915 -21.6277 -40.7544
LeftUpLeg  12.7833 11.6347 32.7147
LeftLeg  -35.6833 -7.38095 -4.97668
LeftFoot  -6.19462 2.95702 -12.245
LeftToes  9.54166e-015 -1.91609e-011 -2.3878e-011
494
root  -13.5405 32.8661 1.03281 119.909 -34.9642 -53.5552
RightUpLeg  -62.3871 -10.5264 -39.9611
RightLeg  -92.7797 -13.2848 11.512
RightFoot  15.7771 5.90081 -16.8955
RightToes  -1.27222e-014 -6.36111e-015 6.36111e-015
Spine  5.69722 -5.36784 13.2449
Spine1  -2.50285 -8.90747 5.45931
HEad  -9.89469 -7.80484 -15.3469
LeftShoulder1  6.36111e-015 -1.33558e-015 6.49777e-015
LeftArm  -69.6896 -44.3328 34.9869
LeftForeArm  -13.4325 38.1616 2.98414
LeftHand  11.9947 22.0335 10.9465
RightShoulder  -4.77083e-015 -6.36111e-015 -3.18055e-015
RightArm  -9.90338 38.2392 -25.2792
RightForeArm  -32.732 -36.7081 3.95819
RightHand  11.2331 -18.7335 -25.9984
LeftUpLeg  14.6185 11.746 30.0842
LeftLeg  -35.1007 -4.98093 -6.30008
LeftFoot  -6.48548 2.82489 -11.8221
LeftToes  9.54166e-015 -1.91609e-011 -2.3878e-011
495
root  -12.0131 32.3522 0.078857 108.669 -25.7988 -53.3123
RightUpLeg  -65.5656 -11.4585 -35.0086
RightLeg  -90.5796 -13.5947 9.61013
RightFoot  14.9142 5.71003 -16.4348
RightToes  -1.27222e-014 -6.36111e-015 6.36111e-015
Spine  5.70587 -6.09416 14.7491
Spine1  -2.88949 -10.0725 8.32107
HEad  -8.89731 -4.01471 -12.2861
LeftShoulder1  6.36111e-015 -1.33558e-015 6.49777e-015
LeftArm  -62.9583 -38.5751 29.9742
LeftForeArm  -6.47329 27.3606 4.35045
LeftHand  15.1071 24.4852 16.1758
RightShoulder  -4.77083e-015 -6.36111e-015 -3.18055e-015
RightArm  3.32666 47.3152 -22.1214
RightForeArm  -31.7029 -21.4631 -3.89565
RightHand  7.21585 -13.0196 -19.7211
LeftUpLeg  15.3241 11.1717 29.8326
LeftLeg  -35.3759 -4.53227 -6.134
LeftFoot  -8.4093 2.41894 -10.8932
LeftToes  9.54166e-015 -1.91609e-011 -2.3878e-011
496
root  -10.9412 32.0091 -1.42514 96.6381 -17.6092 -53.4445
RightUpLeg  -66.2315 -8.27211 -34.18
RightLeg  -85.6996 -14.2234 6.99203
RightFoot  13.1317 5.30812 -15.4225
RightToes  -1.27222e-014 -6.36111e-015 6.36111e-015
Spine  5.8348 -8.00294 15.1643
Spine1  -3.79512 -12.2071 12.3235
HEad  -8.01936 -1.24592 -8.43403
LeftShoulder1  6.36111e-015 -1.33558e-015 6.49777e-015
LeftArm  -55.873 -32.8833 27.7253
LeftForeArm  -1.11301 15.3192 3.92596
LeftHand  16.8538 26.0013 18.4954
RightShoulder  -4.77083e-015 -6.36111e-015 -3.18055e-015
RightArm  8.27369 48.9639 -25.7798
RightForeArm  -32.8517 -7.08459 -12.2338
RightHand  6.81337 -10.915 -21.0613
LeftUpLeg  15.4912 10.9946 30.6248
LeftLeg  -35.5052 -4.87272 -5.72058
LeftFoot  -9.27196 1.49932 -6.91617
LeftToes  9.54166e-015 -1.91609e-011 -2.3878e-011
